<?xml version="1.0" encoding="UTF-8"?>
<svg xmlns:svg="http://www.w3.org/2000/svg" xmlns="http://www.w3.org/2000/svg" viewBox="0 -256 1792 1792" version="1.1"
   width="100%" height="100%">
   <g transform="matrix(1,0,0,-1,387.25424,1338.5763)">
      <path
         d="M 742,-37 90,614 Q 53,651 53,704.5 53,758 90,795 l 652,651 q 37,37 90.5,37 53.5,0 90.5,-37 l 75,-75 q 37,-37 37,-90.5 0,-53.5 -37,-90.5 L 512,704 998,219 q 37,-38 37,-91 0,-53 -37,-90 L 923,-37 Q 886,-74 832.5,-74 779,-74 742,-37 z"
         style="fill:currentColor" />
   </g>
</svg>